<svg xmlns="http://www.w3.org/2000/svg" viewBox="0 0 40 40">
<symbol id="floppy">
<path fill="currentColor" d="M.75 0h3v3h-3zM.75 3h3v3h-3zM.75 6h3v3h-3zM.75 9h3v3h-3zM.75 12h3v3h-3zM.75 15h3v3h-3zM.75 18h3v3h-3zM.75 21h3v3h-3zM.75 24h3v3h-3zM.75 27h3v3h-3zM.75 30h3v3h-3zM.75 33h3v3h-3zM.75 36h3v3h-3zM33.75 0v3h-3V0zM30.75 0v3h-3V0zM27.75 0v3h-3V0zM24.75 0v3h-3V0zM21.75 0v3h-3V0zM18.75 0v3h-3V0zM15.75 0v3h-3V0zM12.75 0v3h-3V0zM9.75 0v3h-3V0zM6.75 0v3h-3V0zM36.75 3v3h-3V3zM9.75 6v3h-3V6zM9.75 3v3h-3V3zM9.75 9v3h-3V9zM30.75 6v3h-3V6zM30.75 3v3h-3V3zM30.75 9v3h-3V9zM24.75 6v3h-3V6zM24.75 3v3h-3V3zM24.75 9v3h-3V9zM30.75 12v3h-3v-3zM27.75 12v3h-3v-3zM24.75 12v3h-3v-3zM21.75 12v3h-3v-3zM18.75 12v3h-3v-3zM15.75 12v3h-3v-3zM12.75 12v3h-3v-3zM9.75 12v3h-3v-3zM33.75 21v3h-3v-3zM30.75 21v3h-3v-3zM27.75 21v3h-3v-3zM24.75 21v3h-3v-3zM21.75 21v3h-3v-3zM18.75 21v3h-3v-3zM15.75 21v3h-3v-3zM12.75 21v3h-3v-3zM9.75 21v3h-3v-3zM33.75 24v3h-3v-3zM9.75 24v3h-3v-3zM33.75 27v3h-3v-3zM9.75 27v3h-3v-3zM33.75 30v3h-3v-3zM9.75 30v3h-3v-3zM9.75 33v3h-3v-3zM33.75 33v3h-3v-3zM36.75 36v3h-3v-3zM33.75 36v3h-3v-3zM30.75 36v3h-3v-3zM27.75 36v3h-3v-3zM24.75 36v3h-3v-3zM21.75 36v3h-3v-3zM18.75 36v3h-3v-3zM15.75 36v3h-3v-3zM12.75 36v3h-3v-3zM9.75 36v3h-3v-3zM6.75 36v3h-3v-3zM39.75 39h-3v-3h3zM39.75 36h-3v-3h3zM39.75 33h-3v-3h3zM39.75 30h-3v-3h3zM39.75 27h-3v-3h3zM39.75 24h-3v-3h3zM39.75 21h-3v-3h3zM39.75 18h-3v-3h3zM39.75 15h-3v-3h3zM39.75 12h-3V9h3zM39.75 9h-3V6h3z"/>
</symbol>
</svg>